HIERARCHY
ROOT root
{
	OFFSET	0	13.1	24.9
	CHANNELS 6  Xposition Yposition Zposition Xrotation Yrotation Zrotation
	JOINT spine_1
	{
		OFFSET	0	9.99999	0
		CHANNELS 3  Xrotation Yrotation Zrotation
		JOINT spine_2
		{
			OFFSET	0	112	-10
			CHANNELS 3  Xrotation Yrotation Zrotation
			JOINT spine_3
			{
				OFFSET	0	206.5	19.3
				CHANNELS 3  Xrotation Yrotation Zrotation
				JOINT spine_4
				{
					OFFSET	0	110.4	14.6
					CHANNELS 3  Xrotation Yrotation Zrotation
					JOINT neck_1
					{
						OFFSET	0	71.8	-50.3
						CHANNELS 3  Xrotation Yrotation Zrotation
						JOINT neck_2
						{
							OFFSET	0	86.2	-25.8
							CHANNELS 3  Xrotation Yrotation Zrotation
							JOINT head_ee
							{
								OFFSET	0	179.8	-8.7
								CHANNELS 3  Xrotation Yrotation Zrotation
								End Site
								{
									OFFSET	1	0	0
								}
							}
						}
					}
					JOINT left_clavicle
					{
						OFFSET	-43.2	22.4	-70.8
						CHANNELS 3  Xrotation Yrotation Zrotation
						JOINT left_shoulder
						{
							OFFSET	-93.9	-5.79999	48.7
							CHANNELS 3  Xrotation Yrotation Zrotation
							JOINT left_elbow
							{
								OFFSET	-291.4	-30.8	15.2
								CHANNELS 3  Xrotation Yrotation Zrotation
								JOINT left_lowarm_twist
								{
									OFFSET	-110.7	-3.89999	13.6
									CHANNELS 3  Xrotation Yrotation Zrotation
									JOINT left_hand
									{
										OFFSET	-110.7	-3.89999	13.6
										CHANNELS 3  Xrotation Yrotation Zrotation
										JOINT left_ee
										{
											OFFSET	-80.8	-5.10001	12.1
											CHANNELS 3  Xrotation Yrotation Zrotation
											End Site
											{
												OFFSET	1	0	0
											}
										}
									}
								}
							}
						}
					}
					JOINT right_clavicle
					{
						OFFSET	43.2	22.4	-70.8
						CHANNELS 3  Xrotation Yrotation Zrotation
						JOINT right_shoulder
						{
							OFFSET	93.9	-5.79999	48.7
							CHANNELS 3  Xrotation Yrotation Zrotation
							JOINT right_elbow
							{
								OFFSET	291.4	-30.8	15.2
								CHANNELS 3  Xrotation Yrotation Zrotation
								JOINT right_lowarm_twist
								{
									OFFSET	110.7	-3.89999	13.6
									CHANNELS 3  Xrotation Yrotation Zrotation
									JOINT right_hand
									{
										OFFSET	110.7	-3.89999	13.6
										CHANNELS 3  Xrotation Yrotation Zrotation
										JOINT right_ee
										{
											OFFSET	80.8	-5.10001	12.1
											CHANNELS 3  Xrotation Yrotation Zrotation
											End Site
											{
												OFFSET	1	0	0
											}
										}
									}
								}
							}
						}
					}
				}
			}
		}
	}
	JOINT left_hip
	{
		OFFSET	-82.8	-127.5	0.300001
		CHANNELS 3  Xrotation Yrotation Zrotation
		JOINT left_knee
		{
			OFFSET	-28.2	-396.7	2.2
			CHANNELS 3  Xrotation Yrotation Zrotation
			JOINT left_ankle
			{
				OFFSET	-11.7	-411.3	35.4
				CHANNELS 3  Xrotation Yrotation Zrotation
				JOINT left_toes
				{
					OFFSET	0	-60	-88.6
					CHANNELS 3  Xrotation Yrotation Zrotation
					JOINT left_foot_ee
					{
						OFFSET	-22.5	-16.5	-42.2
						CHANNELS 3  Xrotation Yrotation Zrotation
						End Site
						{
							OFFSET	1	0	0
						}
					}
				}
			}
		}
	}
	JOINT right_hip
	{
		OFFSET	82.8	-127.5	0.300001
		CHANNELS 3  Xrotation Yrotation Zrotation
		JOINT right_knee
		{
			OFFSET	28.2	-396.7	2.2
			CHANNELS 3  Xrotation Yrotation Zrotation
			JOINT right_ankle
			{
				OFFSET	11.7	-411.3	35.4
				CHANNELS 3  Xrotation Yrotation Zrotation
				JOINT right_toes
				{
					OFFSET	0	-60	-88.6
					CHANNELS 3  Xrotation Yrotation Zrotation
					JOINT right_foot_ee
					{
						OFFSET	22.5	-16.5	-42.2
						CHANNELS 3  Xrotation Yrotation Zrotation
						End Site
						{
							OFFSET	1	0	0
						}
					}
				}
			}
		}
	}
}
MOTION
Frames: 6
Frame Time: 0.02
3177.02 653.055 -1669.29 -14.8446814469 24.9771604245 3.11054170069 5.15263 0.232267 1.85289 5.15453 0.113913 1.86391 5.15652 -0.113333 1.86394 5.15172 0.182412 1.85846 -8.07306 9.50332 -3.03736 -8.0786 19.8819 -0.912209 -0.0 0.0 -0.0 -3.9046 4.26714 -6.76272 -23.9752 -24.6127 77.7366 0.66968 -18.3528 0.108183 5.34312 0.157377 -0.66411 1.54148 9.53574 14.0054 -0.0 0.0 -0.0 10.9298 4.33878 -21.8008 -6.75498 18.4988 -59.6104 1.60001 38.3975 -0.557176 13.6127 -0.27732 1.71271 0.32314 7.65756 1.06847 0.0 0.0 0.0 37.5813 -37.4423 0.988658 -1.30948 0.051699 0.194303 -5.09182 28.3247 0.800231 -23.6188 0.0 0.0 -0.0 0.0 -0.0 6.19086 5.12606 3.591 -22.907 -0.2498 -3.48302 37.1483 3.25935 4.6539 -10.3602 0.0 0.0 0.0 0.0 0.0 
3157.7830329 651.739 -1688.75258968 -13.8383149162 24.3311372863 3.0540564094 4.99233 0.401326 1.74382 4.99398 0.289567 1.76581 5.00147 0.0681847 1.78809 4.99718 0.349681 1.7549 -6.77892 9.61109 -3.43254 -6.71399 20.3177 -1.52177 -0.0 0.0 -0.0 -3.66937 5.60378 -6.05834 -22.3201 -24.0266 76.9185 0.633495 -17.4227 0.097068 5.84569 0.168977 -0.72726 1.59022 9.64157 14.3676 -0.0 0.0 -0.0 10.796 5.00168 -21.5319 -8.44134 18.3761 -59.4254 1.51983 36.9728 -0.508154 13.5945 -0.277223 1.71039 0.348088 6.07153 0.226255 0.0 0.0 0.0 37.7722 -37.4024 2.03972 -5.16682 0.177985 0.77271 -3.43959 28.4862 0.539555 -22.6224 0.0 0.0 -0.0 0.0 -0.0 5.93229 4.82912 4.0255 -26.9459 -0.148876 -4.0945 34.4746 3.79688 4.40627 -9.42917 0.0 0.0 0.0 0.0 0.0 
3157.68109727 651.739 -1688.65130526 -13.8711138454 24.6232536077 3.13321731165 4.99233 0.401326 1.74382 4.99398 0.289567 1.76581 5.00147 0.0681847 1.78809 4.99718 0.349681 1.7549 -6.77892 9.61109 -3.43254 -6.71399 20.3177 -1.52177 -0.0 0.0 -0.0 -3.66937 5.60378 -6.05834 -22.3201 -24.0266 76.9185 0.633495 -17.4227 0.097068 5.84569 0.168977 -0.72726 1.59022 9.64157 14.3676 -0.0 0.0 -0.0 10.796 5.00168 -21.5319 -8.44134 18.3761 -59.4254 1.51983 36.9728 -0.508154 13.5945 -0.277223 1.71039 0.348088 6.07153 0.226255 0.0 0.0 0.0 37.7722 -37.4024 2.03972 -5.16682 0.177985 0.77271 -3.43959 28.4862 0.539555 -22.6224 0.0 0.0 -0.0 0.0 -0.0 5.93229 4.82912 4.0255 -26.9459 -0.148876 -4.0945 34.4746 3.79688 4.40627 -9.42917 0.0 0.0 0.0 0.0 0.0 
3157.582789 651.739 -1688.5526096 -13.9034078626 24.9063939915 3.21031047141 4.99233 0.401326 1.74382 4.99398 0.289567 1.76581 5.00147 0.0681847 1.78809 4.99718 0.349681 1.7549 -6.77892 9.61109 -3.43254 -6.71399 20.3177 -1.52177 -0.0 0.0 -0.0 -3.66937 5.60378 -6.05834 -22.3201 -24.0266 76.9185 0.633495 -17.4227 0.097068 5.84569 0.168977 -0.72726 1.59022 9.64157 14.3676 -0.0 0.0 -0.0 10.796 5.00168 -21.5319 -8.44134 18.3761 -59.4254 1.51983 36.9728 -0.508154 13.5945 -0.277223 1.71039 0.348088 6.07153 0.226255 0.0 0.0 0.0 37.7722 -37.4024 2.03972 -5.16682 0.177985 0.77271 -3.43959 28.4862 0.539555 -22.6224 0.0 0.0 -0.0 0.0 -0.0 5.93229 4.82912 4.0255 -26.9459 -0.148876 -4.0945 34.4746 3.79688 4.40627 -9.42917 0.0 0.0 0.0 0.0 0.0 
3126.3411856 658.843 -1730.91687377 -13.1874170211 21.2419137825 2.95134806733 4.84422 0.429973 1.94106 4.84627 0.305612 1.96447 4.85506 0.0543794 1.98735 4.84974 0.367501 1.95384 -8.85556 8.99697 -5.10559 -8.84414 20.3833 -2.93702 -0.0 0.0 -0.0 -3.48969 6.61508 -5.52981 -20.8747 -24.3295 75.4941 0.604426 -16.6686 0.0885467 8.19317 0.215803 -1.02345 1.40354 8.32925 12.6466 -0.0 0.0 -0.0 10.808 6.50318 -21.5918 -12.0303 21.1725 -61.3822 1.248 31.724 -0.35462 11.4854 -0.260951 1.4415 0.657398 3.65017 -2.87936 0.0 0.0 0.0 38.1953 -36.9407 3.13926 -14.8585 0.32144 2.25117 3.6277 29.5188 -0.564375 -18.2682 0.0 0.0 -0.0 0.0 -0.0 4.58551 4.47385 5.08984 -27.1331 -0.143155 -4.12266 29.5658 3.83693 3.90063 -9.46452 0.0 0.0 0.0 0.0 0.0 
3110.97371952 657.421 -1755.93546229 -11.2366184233 18.497410062 1.96637755897 4.8436 0.504418 1.92262 4.84557 0.381079 1.9508 4.85691 0.131079 1.98334 4.85169 0.442606 1.93777 -10.3792 9.0897 -5.16162 -10.4464 20.5777 -2.67518 -0.0 0.0 -0.0 -3.36258 7.5061 -5.12619 -19.5563 -24.3762 74.1626 0.609998 -16.8137 0.0901518 8.94812 0.228278 -1.11908 1.33562 9.06857 12.4699 -0.0 0.0 -0.0 10.8108 7.36415 -21.6104 -13.6885 21.1455 -62.3163 1.10164 28.6213 -0.281029 10.8514 -0.254126 1.36081 0.63877 3.98935 -2.61173 0.0 0.0 0.0 38.9875 -34.4051 4.39622 -22.5742 0.256188 3.43235 4.55324 28.7075 -0.702929 -16.7739 0.0 0.0 -0.0 0.0 -0.0 3.44403 6.57676 5.39839 -29.5924 -0.0594639 -4.49078 27.4175 2.35516 3.64818 -10.184 0.0 0.0 0.0 0.0 0.0 
